<?xml version="1.0" encoding="UTF-8" standalone="no"?><svg xmlns="http://www.w3.org/2000/svg" xmlns:xlink="http://www.w3.org/1999/xlink" contentScriptType="application/ecmascript" contentStyleType="text/css" height="1077px" preserveAspectRatio="none" style="width:1015px;height:1077px;" version="1.1" viewBox="0 0 1015 1077" width="1015px" zoomAndPan="magnify"><defs/><g><!--MD5=[a6f11bb19cee6b13000111f5ad685e8b]
cluster Dependencies--><path d="M820.515,34.81 L922.515,34.81 A4.5,4.5 0 0 1 925.515,37.81 L932.515,54.7787 L1000.515,54.7787 A3,3 0 0 1 1003.515,57.7787 L1003.515,633.807 A3,3 0 0 1 1000.515,636.807 L820.515,636.807 A3,3 0 0 1 817.515,633.807 L817.515,37.81 A3,3 0 0 1 820.515,34.81 " fill="#FFFFFF" style="stroke: #000000; stroke-width: 1.5;"/><line style="stroke: #000000; stroke-width: 1.5;" x1="817.515" x2="932.515" y1="54.7787" y2="54.7787"/><text fill="#000000" font-family="Tahoma, sans-serif" font-size="12" font-weight="bold" lengthAdjust="spacingAndGlyphs" textLength="102" x="821.515" y="47.9487">Dependencies</text><!--MD5=[2175ea9c213c2ac0d57c4a91b2603145]
entity bcryptjs--><rect fill="#F8F8F8" height="33.9688" rx="3" ry="3" style="stroke: #383838; stroke-width: 1.0;" width="70" x="875.515" y="534.807"/><rect fill="#F8F8F8" height="5" style="stroke: #383838; stroke-width: 1.0;" width="10" x="870.515" y="539.807"/><rect fill="#F8F8F8" height="5" style="stroke: #383838; stroke-width: 1.0;" width="10" x="870.515" y="558.7758"/><text fill="#000000" font-family="Tahoma, sans-serif" font-size="12" lengthAdjust="spacingAndGlyphs" textLength="50" x="885.515" y="555.9457">bcryptjs</text><!--MD5=[564a394d57ce3e0a92ac6699042b9ef1]
entity cors--><rect fill="#F8F8F8" height="33.9688" rx="3" ry="3" style="stroke: #383838; stroke-width: 1.0;" width="47" x="887.015" y="170.807"/><rect fill="#F8F8F8" height="5" style="stroke: #383838; stroke-width: 1.0;" width="10" x="882.015" y="175.807"/><rect fill="#F8F8F8" height="5" style="stroke: #383838; stroke-width: 1.0;" width="10" x="882.015" y="194.7758"/><text fill="#000000" font-family="Tahoma, sans-serif" font-size="12" lengthAdjust="spacingAndGlyphs" textLength="27" x="897.015" y="191.9457">cors</text><!--MD5=[b84d8dbe3cf51322a9824c71d57d534f]
entity dotenv--><rect fill="#F8F8F8" height="33.9688" rx="3" ry="3" style="stroke: #383838; stroke-width: 1.0;" width="63" x="879.015" y="326.807"/><rect fill="#F8F8F8" height="5" style="stroke: #383838; stroke-width: 1.0;" width="10" x="874.015" y="331.807"/><rect fill="#F8F8F8" height="5" style="stroke: #383838; stroke-width: 1.0;" width="10" x="874.015" y="350.7758"/><text fill="#000000" font-family="Tahoma, sans-serif" font-size="12" lengthAdjust="spacingAndGlyphs" textLength="43" x="889.015" y="347.9457">dotenv</text><!--MD5=[6d151e53a42aadf92577082572a20d90]
entity express--><rect fill="#F8F8F8" height="33.9688" rx="3" ry="3" style="stroke: #383838; stroke-width: 1.0;" width="70" x="875.515" y="586.807"/><rect fill="#F8F8F8" height="5" style="stroke: #383838; stroke-width: 1.0;" width="10" x="870.515" y="591.807"/><rect fill="#F8F8F8" height="5" style="stroke: #383838; stroke-width: 1.0;" width="10" x="870.515" y="610.7758"/><text fill="#000000" font-family="Tahoma, sans-serif" font-size="12" lengthAdjust="spacingAndGlyphs" textLength="50" x="885.515" y="607.9457">express</text><!--MD5=[36f7eb4e1653703cd455f48f5fc7e2bd]
entity express-async-errors--><rect fill="#F8F8F8" height="33.9688" rx="3" ry="3" style="stroke: #383838; stroke-width: 1.0;" width="154" x="833.515" y="222.807"/><rect fill="#F8F8F8" height="5" style="stroke: #383838; stroke-width: 1.0;" width="10" x="828.515" y="227.807"/><rect fill="#F8F8F8" height="5" style="stroke: #383838; stroke-width: 1.0;" width="10" x="828.515" y="246.7758"/><text fill="#000000" font-family="Tahoma, sans-serif" font-size="12" lengthAdjust="spacingAndGlyphs" textLength="134" x="843.515" y="243.9457">express-async-errors</text><!--MD5=[0ee5441f537704cd4fea573a5f3f922d]
entity express-rate-limit--><rect fill="#F8F8F8" height="33.9688" rx="3" ry="3" style="stroke: #383838; stroke-width: 1.0;" width="131" x="845.015" y="274.807"/><rect fill="#F8F8F8" height="5" style="stroke: #383838; stroke-width: 1.0;" width="10" x="840.015" y="279.807"/><rect fill="#F8F8F8" height="5" style="stroke: #383838; stroke-width: 1.0;" width="10" x="840.015" y="298.7758"/><text fill="#000000" font-family="Tahoma, sans-serif" font-size="12" lengthAdjust="spacingAndGlyphs" textLength="111" x="855.015" y="295.9457">express-rate-limit</text><!--MD5=[380c1750e2aa5aeed8d38b1a8d057635]
entity helmet--><rect fill="#F8F8F8" height="33.9688" rx="3" ry="3" style="stroke: #383838; stroke-width: 1.0;" width="62" x="879.515" y="66.807"/><rect fill="#F8F8F8" height="5" style="stroke: #383838; stroke-width: 1.0;" width="10" x="874.515" y="71.807"/><rect fill="#F8F8F8" height="5" style="stroke: #383838; stroke-width: 1.0;" width="10" x="874.515" y="90.7758"/><text fill="#000000" font-family="Tahoma, sans-serif" font-size="12" lengthAdjust="spacingAndGlyphs" textLength="42" x="889.515" y="87.9457">helmet</text><!--MD5=[9081a213bf8691c91a610236aeed4923]
entity http-status-codes--><rect fill="#F8F8F8" height="33.9688" rx="3" ry="3" style="stroke: #383838; stroke-width: 1.0;" width="132" x="844.515" y="430.807"/><rect fill="#F8F8F8" height="5" style="stroke: #383838; stroke-width: 1.0;" width="10" x="839.515" y="435.807"/><rect fill="#F8F8F8" height="5" style="stroke: #383838; stroke-width: 1.0;" width="10" x="839.515" y="454.7758"/><text fill="#000000" font-family="Tahoma, sans-serif" font-size="12" lengthAdjust="spacingAndGlyphs" textLength="112" x="854.515" y="451.9457">http-status-codes</text><!--MD5=[456d7759478929e3d83f68f29b03eb91]
entity jsonwebtoken--><rect fill="#F8F8F8" height="33.9688" rx="3" ry="3" style="stroke: #383838; stroke-width: 1.0;" width="106" x="857.515" y="482.807"/><rect fill="#F8F8F8" height="5" style="stroke: #383838; stroke-width: 1.0;" width="10" x="852.515" y="487.807"/><rect fill="#F8F8F8" height="5" style="stroke: #383838; stroke-width: 1.0;" width="10" x="852.515" y="506.7758"/><text fill="#000000" font-family="Tahoma, sans-serif" font-size="12" lengthAdjust="spacingAndGlyphs" textLength="86" x="867.515" y="503.9457">jsonwebtoken</text><!--MD5=[e3bfa7961d47c56a847600d8be1ad6f4]
entity mongoose--><rect fill="#F8F8F8" height="33.9688" rx="3" ry="3" style="stroke: #383838; stroke-width: 1.0;" width="85" x="868.015" y="378.807"/><rect fill="#F8F8F8" height="5" style="stroke: #383838; stroke-width: 1.0;" width="10" x="863.015" y="383.807"/><rect fill="#F8F8F8" height="5" style="stroke: #383838; stroke-width: 1.0;" width="10" x="863.015" y="402.7758"/><text fill="#000000" font-family="Tahoma, sans-serif" font-size="12" lengthAdjust="spacingAndGlyphs" textLength="65" x="878.015" y="399.9457">mongoose</text><!--MD5=[70bca1af0de0925262edd52754425b94]
entity xss-clean--><rect fill="#F8F8F8" height="33.9688" rx="3" ry="3" style="stroke: #383838; stroke-width: 1.0;" width="79" x="871.015" y="118.807"/><rect fill="#F8F8F8" height="5" style="stroke: #383838; stroke-width: 1.0;" width="10" x="866.015" y="123.807"/><rect fill="#F8F8F8" height="5" style="stroke: #383838; stroke-width: 1.0;" width="10" x="866.015" y="142.7758"/><text fill="#000000" font-family="Tahoma, sans-serif" font-size="12" lengthAdjust="spacingAndGlyphs" textLength="59" x="881.015" y="139.9457">xss-clean</text><ellipse cx="97.1074" cy="340.6844" fill="#F8F8F8" rx="22.0919" ry="12.8774" style="stroke: #383838; stroke-width: 0.5;"/><text fill="#000000" font-family="Tahoma, sans-serif" font-size="12" font-weight="bold" lengthAdjust="spacingAndGlyphs" textLength="27" x="83.6074" y="344.1688">app</text><ellipse cx="564.2993" cy="845.6844" fill="#F8F8F8" rx="31.2843" ry="12.8774" style="stroke: #383838; stroke-width: 0.5;"/><text fill="#000000" font-family="Tahoma, sans-serif" font-size="12" lengthAdjust="spacingAndGlyphs" textLength="40" x="544.2993" y="849.1688">Author</text><ellipse cx="564.4937" cy="538.7027" fill="#F8F8F8" rx="54.9787" ry="13.3957" style="stroke: #383838; stroke-width: 0.5;"/><text fill="#000000" font-family="Tahoma, sans-serif" font-size="12" lengthAdjust="spacingAndGlyphs" textLength="77" x="525.9937" y="542.1871">bad-request</text><ellipse cx="564.4353" cy="719.6844" fill="#F8F8F8" rx="24.9203" ry="12.8774" style="stroke: #383838; stroke-width: 0.5;"/><text fill="#000000" font-family="Tahoma, sans-serif" font-size="12" lengthAdjust="spacingAndGlyphs" textLength="31" x="548.9353" y="723.1688">Book</text><ellipse cx="564.6632" cy="317.6844" fill="#F8F8F8" rx="37.6482" ry="12.8774" style="stroke: #383838; stroke-width: 0.5;"/><text fill="#000000" font-family="Tahoma, sans-serif" font-size="12" lengthAdjust="spacingAndGlyphs" textLength="49" x="540.1632" y="321.1688">connect</text><ellipse cx="264.2794" cy="787.7599" fill="#F8F8F8" rx="62.7644" ry="14.9529" style="stroke: #383838; stroke-width: 0.5;"/><text fill="#000000" font-family="Tahoma, sans-serif" font-size="12" lengthAdjust="spacingAndGlyphs" textLength="97" x="215.7794" y="791.2443">controllers/auth</text><ellipse cx="264.6457" cy="868.9331" fill="#F8F8F8" rx="71.1307" ry="16.6261" style="stroke: #383838; stroke-width: 0.5;"/><text fill="#000000" font-family="Tahoma, sans-serif" font-size="12" lengthAdjust="spacingAndGlyphs" textLength="117" x="206.1457" y="872.4175">controllers/authors</text><ellipse cx="264.3231" cy="673.6686" fill="#F8F8F8" rx="67.3081" ry="15.8616" style="stroke: #383838; stroke-width: 0.5;"/><text fill="#000000" font-family="Tahoma, sans-serif" font-size="12" lengthAdjust="spacingAndGlyphs" textLength="108" x="210.3231" y="677.153">controllers/books</text><ellipse cx="738.6892" cy="587.0418" fill="#F8F8F8" rx="59.1742" ry="14.2348" style="stroke: #383838; stroke-width: 0.5;"/><text fill="#000000" font-family="Tahoma, sans-serif" font-size="12" lengthAdjust="spacingAndGlyphs" textLength="88" x="694.6892" y="590.5262">custom-errors</text><ellipse cx="564.3716" cy="362.5783" fill="#F8F8F8" rx="56.8566" ry="13.7713" style="stroke: #383838; stroke-width: 0.5;"/><text fill="#000000" font-family="Tahoma, sans-serif" font-size="12" lengthAdjust="spacingAndGlyphs" textLength="82" x="523.3716" y="366.0627">error-handler</text><ellipse cx="410.3851" cy="628.6844" fill="#F8F8F8" rx="29.8701" ry="12.8774" style="stroke: #383838; stroke-width: 0.5;"/><text fill="#000000" font-family="Tahoma, sans-serif" font-size="12" lengthAdjust="spacingAndGlyphs" textLength="38" x="391.3851" y="632.1688">errors</text><ellipse cx="564.4136" cy="672.5867" fill="#F8F8F8" rx="64.3986" ry="15.2797" style="stroke: #383838; stroke-width: 0.5;"/><text fill="#000000" font-family="Tahoma, sans-serif" font-size="12" lengthAdjust="spacingAndGlyphs" textLength="101" x="513.9136" y="676.0711">errors/not-found</text><ellipse cx="264.7387" cy="562.7517" fill="#F8F8F8" rx="65.2237" ry="15.4447" style="stroke: #383838; stroke-width: 0.5;"/><text fill="#000000" font-family="Tahoma, sans-serif" font-size="12" lengthAdjust="spacingAndGlyphs" textLength="103" x="213.2387" y="566.2361">middleware/auth</text><ellipse cx="564.5136" cy="413.0067" fill="#F8F8F8" rx="78.9986" ry="18.1997" style="stroke: #383838; stroke-width: 0.5;"/><text fill="#000000" font-family="Tahoma, sans-serif" font-size="12" lengthAdjust="spacingAndGlyphs" textLength="135" x="497.0136" y="416.4911">middleware/not-found</text><ellipse cx="410.3348" cy="828.6844" fill="#F8F8F8" rx="34.8198" ry="12.8774" style="stroke: #383838; stroke-width: 0.5;"/><text fill="#000000" font-family="Tahoma, sans-serif" font-size="12" lengthAdjust="spacingAndGlyphs" textLength="45" x="387.8348" y="832.1688">models</text><ellipse cx="96.813" cy="787.7665" fill="#F8F8F8" rx="52.7975" ry="12.9595" style="stroke: #383838; stroke-width: 0.5;"/><text fill="#000000" font-family="Tahoma, sans-serif" font-size="12" lengthAdjust="spacingAndGlyphs" textLength="71" x="61.313" y="791.2509">routes/auth</text><ellipse cx="96.8722" cy="868.7783" fill="#F8F8F8" rx="60.3567" ry="14.4713" style="stroke: #383838; stroke-width: 0.5;"/><text fill="#000000" font-family="Tahoma, sans-serif" font-size="12" lengthAdjust="spacingAndGlyphs" textLength="91" x="51.3722" y="872.2627">routes/authors</text><ellipse cx="96.8721" cy="673.5783" fill="#F8F8F8" rx="56.8566" ry="13.7713" style="stroke: #383838; stroke-width: 0.5;"/><text fill="#000000" font-family="Tahoma, sans-serif" font-size="12" lengthAdjust="spacingAndGlyphs" textLength="82" x="55.8721" y="677.0627">routes/books</text><ellipse cx="410.5774" cy="276.6844" fill="#F8F8F8" rx="39.0624" ry="12.8774" style="stroke: #383838; stroke-width: 0.5;"/><text fill="#000000" font-family="Tahoma, sans-serif" font-size="12" font-weight="bold" lengthAdjust="spacingAndGlyphs" textLength="51" x="385.0774" y="280.1688">seeder</text><ellipse cx="564.503" cy="586.0046" fill="#F8F8F8" rx="63.988" ry="15.1976" style="stroke: #383838; stroke-width: 0.5;"/><text fill="#000000" font-family="Tahoma, sans-serif" font-size="12" lengthAdjust="spacingAndGlyphs" textLength="100" x="514.503" y="589.489">unauthenticated</text><!--MD5=[4d42a1d3cbae47bde30115bf32363afe]
link <b>app</b> to connect--><path d="M119.25,339.37 C138.6,338.085 167.97,336.196 193.515,334.807 C312.571,328.332 453.267,322.318 521.799,319.494 " fill="none" id="&lt;b&gt;app&lt;/b&gt;-&gt;connect" style="stroke: #000000; stroke-width: 1.0;"/><polygon fill="#000000" points="527.006,319.28,517.849,315.6537,522.0102,319.4857,518.1782,323.6469,527.006,319.28" style="stroke: #000000; stroke-width: 1.0;"/><!--MD5=[5a427ebd384921690a5588ef6c0900ef]
link <b>app</b> to cors--><path d="M100.2103,327.871 C106.998,292.024 131.08,190.703 193.515,139.807 C270.132,77.35 310.668,86.807 409.515,86.807 C409.515,86.807 409.515,86.807 565.515,86.807 C669.728,86.807 718.879,52.421 797.515,120.807 C811.842,133.266 795.888,148.586 809.515,161.807 C828.706,180.423 859.449,186.176 881.787,187.732 " fill="none" id="&lt;b&gt;app&lt;/b&gt;-&gt;cors" style="stroke: #000000; stroke-width: 1.0;"/><polygon fill="#000000" points="886.987,188.03,878.2303,183.5222,881.9952,187.7443,877.7731,191.5091,886.987,188.03" style="stroke: #000000; stroke-width: 1.0;"/><!--MD5=[5179f2b650d94c907f5caaaeed1814ef]
link <b>app</b> to dotenv--><path d="M110.454,330.512 C150.827,298.181 282.93,200.807 409.515,200.807 C409.515,200.807 409.515,200.807 565.515,200.807 C669.272,200.807 723.436,154.159 797.515,226.807 C826.642,255.37 782.501,287.239 809.515,317.807 C825.352,335.726 851.813,342.033 873.538,343.962 " fill="none" id="&lt;b&gt;app&lt;/b&gt;-&gt;dotenv" style="stroke: #000000; stroke-width: 1.0;"/><polygon fill="#000000" points="878.664,344.346,869.9887,339.6835,873.678,343.9717,869.3898,347.661,878.664,344.346" style="stroke: #000000; stroke-width: 1.0;"/><!--MD5=[f703d59bf63b6e6a6c589c9acba4db3d]
link <b>app</b> to error-handler--><path d="M119.227,341.809 C186.654,344.996 397.806,354.975 502.881,359.941 " fill="none" id="&lt;b&gt;app&lt;/b&gt;-&gt;error-handler" style="stroke: #000000; stroke-width: 1.0;"/><polygon fill="#000000" points="508.11,360.188,499.3098,355.7656,503.1156,359.9509,498.9304,363.7566,508.11,360.188" style="stroke: #000000; stroke-width: 1.0;"/><!--MD5=[36d37c7b29be7aee90aace28decd0f3c]
link <b>app</b> to express--><path d="M115.058,348.573 C134,357.057 165.604,370.774 193.515,380.807 C457.476,475.688 562.768,410.278 797.515,563.807 C804.374,568.292 802.565,573.465 809.515,577.807 C827.595,589.098 850.436,595.509 869.723,599.137 " fill="none" id="&lt;b&gt;app&lt;/b&gt;-&gt;express" style="stroke: #000000; stroke-width: 1.0;"/><polygon fill="#000000" points="875.062,600.089,866.9035,594.5719,870.1396,599.2117,865.4998,602.4478,875.062,600.089" style="stroke: #000000; stroke-width: 1.0;"/><!--MD5=[da91b0ad38f1ee6f964191955270a3bc]
link <b>app</b> to express-async-errors--><path d="M102.0269,327.78 C112.11,297.278 141.497,220.858 193.515,181.807 C272.917,122.198 310.229,124.807 409.515,124.807 C409.515,124.807 409.515,124.807 565.515,124.807 C669.603,124.807 721.369,85.843 797.515,156.807 C816.455,174.457 791.643,195.077 809.515,213.807 C815.053,219.61 821.708,224.18 828.92,227.769 " fill="none" id="&lt;b&gt;app&lt;/b&gt;-&gt;express-async-errors" style="stroke: #000000; stroke-width: 1.0;"/><polygon fill="#000000" points="833.477,229.879,826.9915,222.467,828.94,227.7776,823.6293,229.7261,833.477,229.879" style="stroke: #000000; stroke-width: 1.0;"/><!--MD5=[1b5ba2189b99453eb3681810d15e4f1b]
link <b>app</b> to express-rate-limit--><path d="M104.9508,328.46 C118.731,305.058 151.855,254.146 193.515,226.807 C277.225,171.871 309.39,162.807 409.515,162.807 C409.515,162.807 409.515,162.807 565.515,162.807 C669.429,162.807 722.712,119.678 797.515,191.807 C821.5,214.934 787.084,241.17 809.515,265.807 C817.652,274.743 828.433,280.777 839.902,284.816 " fill="none" id="&lt;b&gt;app&lt;/b&gt;-&gt;express-rate-limit" style="stroke: #000000; stroke-width: 1.0;"/><polygon fill="#000000" points="844.853,286.428,837.5343,279.8373,840.0988,284.8795,835.0567,287.444,844.853,286.428" style="stroke: #000000; stroke-width: 1.0;"/><!--MD5=[9a6ca3998e92eafc5cfa1b23d1727d72]
link <b>app</b> to helmet--><path d="M98.1959,327.766 C99.5624,282.872 110.427,133.384 193.515,58.807 C266.701,-6.88 311.174,10.81 409.515,10.81 C409.515,10.81 409.515,10.81 565.515,10.81 C680.421,10.81 812.306,50.264 874.096,71.161 " fill="none" id="&lt;b&gt;app&lt;/b&gt;-&gt;helmet" style="stroke: #000000; stroke-width: 1.0;"/><polygon fill="#000000" points="879.14,72.878,871.9089,66.1914,874.4067,71.2669,869.3311,73.7647,879.14,72.878" style="stroke: #000000; stroke-width: 1.0;"/><!--MD5=[f4fd700b564515c84f90989231282914]
link <b>app</b> to middleware/auth--><path d="M106.567,352.921 C123.111,376.289 160.753,429.14 193.515,472.807 C211.96,497.39 233.779,525.258 248.095,543.384 " fill="none" id="&lt;b&gt;app&lt;/b&gt;-&gt;middleware/auth" style="stroke: #000000; stroke-width: 1.0;"/><polygon fill="#000000" points="251.21,547.324,248.7682,537.7826,248.1099,543.401,242.4915,542.7427,251.21,547.324" style="stroke: #000000; stroke-width: 1.0;"/><!--MD5=[6a3d7238a93d5b80aae5bb34772a6a3c]
link <b>app</b> to middleware/not-found--><path d="M118.505,344.043 C137.841,347.092 167.645,351.782 193.515,355.807 C297.781,372.026 418.612,390.599 493.061,402.016 " fill="none" id="&lt;b&gt;app&lt;/b&gt;-&gt;middleware/not-found" style="stroke: #000000; stroke-width: 1.0;"/><polygon fill="#000000" points="498.341,402.825,490.0521,397.5057,493.3989,402.0663,488.8383,405.4131,498.341,402.825" style="stroke: #000000; stroke-width: 1.0;"/><!--MD5=[b8f5f197952f0f76ef2282b94d0ef0c0]
link <b>app</b> to routes/auth--><path d="M89.4327,353.062 C62.3828,398.396 -25.4683,560.544 18.5155,687.807 C30.344,722.031 59.2524,753.46 78.4907,771.62 " fill="none" id="&lt;b&gt;app&lt;/b&gt;-&gt;routes/auth" style="stroke: #000000; stroke-width: 1.0;"/><polygon fill="#000000" points="82.2015,775.072,78.3357,766.0135,78.5404,771.6667,72.8872,771.8714,82.2015,775.072" style="stroke: #000000; stroke-width: 1.0;"/><!--MD5=[36743e3989b72ce3c15354041a3fef1c]
link <b>app</b> to routes/authors--><path d="M92.7508,353.958 C71.5819,420.173 -19.6893,717.166 18.5155,800.807 C28.6676,823.032 50.0687,840.782 67.9646,852.567 " fill="none" id="&lt;b&gt;app&lt;/b&gt;-&gt;routes/authors" style="stroke: #000000; stroke-width: 1.0;"/><polygon fill="#000000" points="72.4299,855.433,67.0177,847.2045,68.2225,852.7316,62.6954,853.9363,72.4299,855.433" style="stroke: #000000; stroke-width: 1.0;"/><!--MD5=[b60857705d283621ad327e435daf17ef]
link <b>app</b> to routes/books--><path d="M97.0155,353.878 C97.0155,454.06 97.0155,554.242 97.0155,654.424 " fill="none" id="&lt;b&gt;app&lt;/b&gt;-&gt;routes/books" style="stroke: #000000; stroke-width: 1.0;"/><polygon fill="#000000" points="97.0155,659.498,101.0155,650.498,97.0155,654.498,93.0155,650.498,97.0155,659.498" style="stroke: #000000; stroke-width: 1.0;"/><!--MD5=[fd50a071ad2f6344ad864fa544ef6840]
link <b>app</b> to xss-clean--><path d="M99.0523,327.646 C103.0024,286.843 120.803,161.457 193.515,98.807 C268.166,34.49 310.977,48.807 409.515,48.807 C409.515,48.807 409.515,48.807 565.515,48.807 C669.861,48.807 713.734,22.61 797.515,84.807 C807.411,92.153 800.001,101.973 809.515,109.807 C825.212,122.73 846.612,129.307 865.588,132.623 " fill="none" id="&lt;b&gt;app&lt;/b&gt;-&gt;xss-clean" style="stroke: #000000; stroke-width: 1.0;"/><polygon fill="#000000" points="870.869,133.474,862.6204,128.0925,865.9327,132.6782,861.3471,135.9906,870.869,133.474" style="stroke: #000000; stroke-width: 1.0;"/><!--MD5=[7db82ff961a699bb043e92393038a283]
link Author to bcryptjs--><path d="M582.289,856.635 C624.715,882.545 737.204,941.7992 797.515,883.807 C822.042,860.223 788.178,604.311 809.515,577.807 C823.887,559.955 848.82,553.446 870.193,551.404 " fill="none" id="Author-&gt;bcryptjs" style="stroke: #000000; stroke-width: 0.5;"/><polygon fill="#000000" points="875.257,550.996,865.9649,547.7314,870.2731,551.3974,866.6072,555.7056,875.257,550.996" style="stroke: #000000; stroke-width: 0.5;"/><!--MD5=[8cc3b89626d0b8b4189b3fc73f680156]
link Author to jsonwebtoken--><path d="M593.566,851.101 C643.19,858.655 746.063,865.826 797.515,807.807 C818.324,784.342 789.808,550.203 809.515,525.807 C820.037,512.781 836.181,505.798 852.448,502.182 " fill="none" id="Author-&gt;jsonwebtoken" style="stroke: #000000; stroke-width: 0.5;"/><polygon fill="#000000" points="857.495,501.165,847.8824,499.0206,852.5934,502.1522,849.4619,506.8632,857.495,501.165" style="stroke: #000000; stroke-width: 0.5;"/><!--MD5=[a1bbb851f31f15ce778883c9976dab1e]
link Author to mongoose--><path d="M590.453,838.265 C640.181,821.741 750.899,777.166 797.515,695.807 C812.665,669.366 790.352,445.5 809.515,421.807 C822.199,406.126 843.029,399.203 862.404,396.371 " fill="none" id="Author-&gt;mongoose" style="stroke: #000000; stroke-width: 0.5;"/><polygon fill="#000000" points="867.823,395.677,858.3874,392.854,862.8636,396.3128,859.4047,400.789,867.823,395.677" style="stroke: #000000; stroke-width: 0.5;"/><!--MD5=[5d51905313b1c662b607f9009eb6c4c0]
link bad-request to custom-errors--><path d="M601.572,548.869 C628.764,556.457 666.148,566.89 694.832,574.895 " fill="none" id="bad-request-&gt;custom-errors" style="stroke: #000000; stroke-width: 0.5;"/><polygon fill="#000000" points="699.719,576.259,692.1259,569.9865,694.9031,574.9147,689.9749,577.6919,699.719,576.259" style="stroke: #000000; stroke-width: 0.5;"/><!--MD5=[c0b7ba76d54c39acd16ef340ede0ec02]
link bad-request to http-status-codes--><path d="M577.582,525.444 C596.817,505.235 636.654,467.68 679.515,452.807 C730.939,434.961 792.795,434.699 839.401,438.357 " fill="none" id="bad-request-&gt;http-status-codes" style="stroke: #000000; stroke-width: 0.5;"/><polygon fill="#000000" points="844.434,438.771,835.7923,434.0464,839.4508,438.361,835.1363,442.0195,844.434,438.771" style="stroke: #000000; stroke-width: 0.5;"/><!--MD5=[209244091298bd903710c90c77540015]
link Book to mongoose--><path d="M589.024,716.901 C638.138,709.416 750.923,684.504 797.515,609.807 C819.671,574.287 782.865,454.091 809.515,421.807 C822.354,406.253 843.204,399.346 862.552,396.491 " fill="none" id="Book-&gt;mongoose" style="stroke: #000000; stroke-width: 0.5;"/><polygon fill="#000000" points="867.961,395.79,858.5206,392.983,863.0027,396.4343,859.5514,400.9163,867.961,395.79" style="stroke: #000000; stroke-width: 0.5;"/><!--MD5=[e03f7950bf009a85624ca2456230b17d]
link connect to mongoose--><path d="M596.934,311.089 C645.256,302.671 738.413,294.261 797.515,338.807 C809.314,347.699 798.486,359.977 809.515,369.807 C824.083,382.788 844.324,389.432 862.789,392.78 " fill="none" id="connect-&gt;mongoose" style="stroke: #000000; stroke-width: 0.5;"/><polygon fill="#000000" points="867.943,393.64,859.7238,388.2137,863.0111,392.8173,858.4075,396.1046,867.943,393.64" style="stroke: #000000; stroke-width: 0.5;"/><!--MD5=[eea0475e439c4568352038d3efd84b34]
link controllers/auth to Author--><path d="M282.901,802.201 C302.851,817.697 337.248,841.392 371.515,850.807 C425.827,865.728 492.058,858.782 530.833,852.329 " fill="none" id="controllers/auth-&gt;Author" style="stroke: #000000; stroke-width: 0.5;"/><polygon fill="#000000" points="535.886,851.465,526.3404,849.0398,530.9576,852.3081,527.6893,856.9253,535.886,851.465" style="stroke: #000000; stroke-width: 0.5;"/><!--MD5=[41dd2d67fdd8bc8fb497669c28952160]
link controllers/auth to errors--><path d="M278.805,773.133 C305.858,743.262 367.129,675.608 395.102,644.721 " fill="none" id="controllers/auth-&gt;errors" style="stroke: #000000; stroke-width: 0.5;"/><polygon fill="#000000" points="398.663,640.79,389.6561,644.7744,395.306,644.4955,395.5849,650.1455,398.663,640.79" style="stroke: #000000; stroke-width: 0.5;"/><!--MD5=[7d965098507b592c7c3352c6e57213a3]
link controllers/auth to http-status-codes--><path d="M327.082,790.228 C460.124,794.813 765.106,801.583 797.515,768.807 C820.581,745.48 788.925,499.345 809.515,473.807 C817.2,464.276 827.895,457.979 839.448,453.869 " fill="none" id="controllers/auth-&gt;http-status-codes" style="stroke: #000000; stroke-width: 0.5;"/><polygon fill="#000000" points="844.446,452.238,834.6491,451.2273,839.6927,453.7891,837.1309,458.8327,844.446,452.238" style="stroke: #000000; stroke-width: 0.5;"/><!--MD5=[6272575be74e37a8c43b8ea3a45626bc]
link controllers/authors to http-status-codes--><path d="M312.349,881.143 C422.037,906.874 694.106,951.5858 797.515,793.807 C817.019,764.048 787.227,501.541 809.515,473.807 C817.185,464.263 827.872,457.961 839.424,453.849 " fill="none" id="controllers/authors-&gt;http-status-codes" style="stroke: #000000; stroke-width: 0.5;"/><polygon fill="#000000" points="844.421,452.218,834.624,451.2082,839.6678,453.7695,837.1065,458.8133,844.421,452.218" style="stroke: #000000; stroke-width: 0.5;"/><!--MD5=[977f8bde9fcb54118c9a5c96e5ffc3ea]
link controllers/authors to models--><path d="M310.683,856.26 C332.278,850.262 357.63,843.219 377.251,837.769 " fill="none" id="controllers/authors-&gt;models" style="stroke: #000000; stroke-width: 0.5;"/><polygon fill="#000000" points="382.11,836.419,372.3677,834.9739,377.2924,837.7573,374.509,842.682,382.11,836.419" style="stroke: #000000; stroke-width: 0.5;"/><!--MD5=[4ea6fbba936603da115401ce9d8bec8e]
link controllers/books to Book--><path d="M325.73,680.722 C361.729,685.09 408.331,691.153 449.515,697.807 C479.115,702.589 512.806,709.241 535.84,713.976 " fill="none" id="controllers/books-&gt;Book" style="stroke: #000000; stroke-width: 0.5;"/><polygon fill="#000000" points="540.877,715.016,532.8721,709.2783,535.9803,714.0047,531.254,717.1129,540.877,715.016" style="stroke: #000000; stroke-width: 0.5;"/><!--MD5=[d015d22d863bae50a1f5c85fdf3f4bc3]
link controllers/books to errors--><path d="M306.011,661.152 C329.731,653.739 359.133,644.551 380.532,637.864 " fill="none" id="controllers/books-&gt;errors" style="stroke: #000000; stroke-width: 0.5;"/><polygon fill="#000000" points="385.517,636.306,375.7336,635.1724,380.7446,637.7973,378.1197,642.8083,385.517,636.306" style="stroke: #000000; stroke-width: 0.5;"/><!--MD5=[de9568380e9938cec2d846abbdb99c38]
link controllers/books to http-status-codes--><path d="M294.536,688.243 C386.941,731.979 675.381,850.836 797.515,695.807 C828.09,656.998 778.25,512.06 809.515,473.807 C817.214,464.388 827.85,458.135 839.328,454.031 " fill="none" id="controllers/books-&gt;http-status-codes" style="stroke: #000000; stroke-width: 0.5;"/><polygon fill="#000000" points="844.293,452.401,834.4942,451.4089,839.5426,453.9611,836.9904,459.0095,844.293,452.401" style="stroke: #000000; stroke-width: 0.5;"/><!--MD5=[b2ffc3378ba2eb5eb3469d9812b7cd60]
link error-handler to http-status-codes--><path d="M615.176,356.175 C666.106,352.16 745.084,354 797.515,393.807 C808.299,401.993 799.249,412.98 809.515,421.807 C818.126,429.21 828.593,434.542 839.472,438.374 " fill="none" id="error-handler-&gt;http-status-codes" style="stroke: #000000; stroke-width: 0.5;"/><polygon fill="#000000" points="844.494,440.031,837.201,433.4119,839.7459,438.464,834.6938,441.0089,844.494,440.031" style="stroke: #000000; stroke-width: 0.5;"/><!--MD5=[6563f98b346f528a83eaa65d692f713b]
link errors to bad-request--><path d="M421.792,616.611 C435.05,601.623 459.519,576.392 485.515,561.807 C495.125,556.415 506.125,552.173 516.775,548.881 " fill="none" id="errors-&gt;bad-request" style="stroke: #000000; stroke-width: 0.5;"/><polygon fill="#000000" points="521.637,547.435,511.8701,546.1671,516.8445,548.8606,514.151,553.835,521.637,547.435" style="stroke: #000000; stroke-width: 0.5;"/><!--MD5=[05969853c657acef966306bdef6833c7]
link errors to custom-errors--><path d="M440.629,627.9 C484.758,626.194 571.113,621.553 643.515,609.807 C660.499,607.051 678.936,602.82 694.947,598.734 " fill="none" id="errors-&gt;custom-errors" style="stroke: #000000; stroke-width: 0.5;"/><polygon fill="#000000" points="699.834,597.473,690.1198,595.8499,694.9928,598.723,692.1197,603.5959,699.834,597.473" style="stroke: #000000; stroke-width: 0.5;"/><!--MD5=[419f3d7db0d6424dd3e803d453ba31f4]
link errors to errors/not-found--><path d="M435.937,635.876 C457.9,642.234 490.743,651.741 517.606,659.517 " fill="none" id="errors-&gt;errors/not-found" style="stroke: #000000; stroke-width: 0.5;"/><polygon fill="#000000" points="522.548,660.948,515.0165,654.6016,517.7455,659.5567,512.7904,662.2856,522.548,660.948" style="stroke: #000000; stroke-width: 0.5;"/><!--MD5=[8fb8bacc10fc7dff1c8736c3e2ec3f1d]
link errors to unauthenticated--><path d="M435.937,621.898 C457.979,615.662 490.98,606.327 517.895,598.712 " fill="none" id="errors-&gt;unauthenticated" style="stroke: #000000; stroke-width: 0.5;"/><polygon fill="#000000" points="522.846,597.312,513.0973,595.9108,518.0345,598.672,515.2733,603.6092,522.846,597.312" style="stroke: #000000; stroke-width: 0.5;"/><!--MD5=[993327a16a6e04719551e80daa7dd405]
link errors/not-found to custom-errors--><path d="M603.688,660.367 C616.652,655.561 631.013,649.577 643.515,642.807 C660.871,633.408 662.704,627.146 679.515,616.807 C688.07,611.545 697.651,606.332 706.522,601.764 " fill="none" id="errors/not-found-&gt;custom-errors" style="stroke: #000000; stroke-width: 0.5;"/><polygon fill="#000000" points="711.366,599.297,701.531,599.8184,706.9108,601.5667,705.1625,606.9466,711.366,599.297" style="stroke: #000000; stroke-width: 0.5;"/><!--MD5=[f2a8ff1043948adc3eaf660e14f82db2]
link errors/not-found to http-status-codes--><path d="M628.85,674.163 C682.402,671.588 756.734,658.537 797.515,609.807 C816.987,586.54 789.919,496.968 809.515,473.807 C817.322,464.58 827.946,458.409 839.364,454.325 " fill="none" id="errors/not-found-&gt;http-status-codes" style="stroke: #000000; stroke-width: 0.5;"/><polygon fill="#000000" points="844.3,452.699,834.5003,451.7158,839.551,454.2634,837.0034,459.3141,844.3,452.699" style="stroke: #000000; stroke-width: 0.5;"/><!--MD5=[9d6747dfc5d66bf99311553fd5692d68]
link middleware/auth to Author--><path d="M281.537,578.022 C333.144,627.031 494.71,780.464 547.005,830.127 " fill="none" id="middleware/auth-&gt;Author" style="stroke: #000000; stroke-width: 0.5;"/><polygon fill="#000000" points="550.866,833.793,547.0939,824.6951,547.2402,830.3501,541.5853,830.4964,550.866,833.793" style="stroke: #000000; stroke-width: 0.5;"/><!--MD5=[b1b7b557f0896d53fc2c364d49861602]
link middleware/auth to errors--><path d="M295.352,576.482 C321.611,588.517 359.422,605.847 384.224,617.214 " fill="none" id="middleware/auth-&gt;errors" style="stroke: #000000; stroke-width: 0.5;"/><polygon fill="#000000" points="389.003,619.405,382.4872,612.0196,384.4575,617.3222,379.1548,619.2924,389.003,619.405" style="stroke: #000000; stroke-width: 0.5;"/><!--MD5=[55409098f03ea6155c6f6fa6f737d6d6]
link middleware/auth to jsonwebtoken--><path d="M308.985,551.486 C353.108,540.525 423.555,524.472 485.515,516.807 C615.901,500.675 770.386,498.769 852.121,499.097 " fill="none" id="middleware/auth-&gt;jsonwebtoken" style="stroke: #000000; stroke-width: 0.5;"/><polygon fill="#000000" points="857.399,499.122,848.4174,495.0809,852.3991,499.0991,848.3808,503.0808,857.399,499.122" style="stroke: #000000; stroke-width: 0.5;"/><!--MD5=[bc4422ca9bf7d11bd3738a60d719b685]
link middleware/not-found to http-status-codes--><path d="M634.298,404.256 C681.148,400.635 744.114,400.122 797.515,414.807 C803.469,416.444 803.808,419.452 809.515,421.807 C818.992,425.716 829.222,429.175 839.395,432.191 " fill="none" id="middleware/not-found-&gt;http-status-codes" style="stroke: #000000; stroke-width: 0.5;"/><polygon fill="#000000" points="844.381,433.636,836.8513,427.2875,839.5789,432.2434,834.623,434.9709,844.381,433.636" style="stroke: #000000; stroke-width: 0.5;"/><!--MD5=[3002572eaf1e57d086a1e32024664328]
link models to Author--><path d="M444.123,832.453 C468.962,835.232 503.101,839.05 528.512,841.892 " fill="none" id="models-&gt;Author" style="stroke: #000000; stroke-width: 0.5;"/><polygon fill="#000000" points="533.796,842.483,525.2964,837.5074,528.827,841.9272,524.4072,845.4578,533.796,842.483" style="stroke: #000000; stroke-width: 0.5;"/><!--MD5=[d6acdfd6ed1fbd9bb93074868e9d85d7]
link models to Book--><path d="M427.495,817.348 C455.828,797.03 514.716,754.801 544.859,733.185 " fill="none" id="models-&gt;Book" style="stroke: #000000; stroke-width: 0.5;"/><polygon fill="#000000" points="549.09,730.151,539.4454,732.1464,545.0271,733.0653,544.1083,738.647,549.09,730.151" style="stroke: #000000; stroke-width: 0.5;"/><!--MD5=[27ee017532f974667cc36e604e78544b]
link routes/auth to controllers/auth--><path d="M150.381,787.807 C164.93,787.807 180.934,787.807 196.21,787.807 " fill="none" id="routes/auth-&gt;controllers/auth" style="stroke: #000000; stroke-width: 0.5;"/><polygon fill="#000000" points="201.36,787.807,192.36,783.807,196.36,787.807,192.36,791.807,201.36,787.807" style="stroke: #000000; stroke-width: 0.5;"/><!--MD5=[8e2a10be07dbfe92908f777de6391cc9]
link routes/auth to express--><path d="M114.486,800.215 C127.751,810.976 146.021,827.644 157.515,845.807 C183.897,887.493 155.658,919.174 193.515,950.8066 C268.039,1013.0754 312.402,983.8066 409.515,983.8066 C409.515,983.8066 409.515,983.8066 565.515,983.8066 C669.323,983.8066 717.436,1022.8604 797.515,956.8066 C901.48,871.052 910.281,689.075 910.057,625.935 " fill="none" id="routes/auth-&gt;express" style="stroke: #000000; stroke-width: 0.5;"/><polygon fill="#000000" points="910.019,620.896,906.086,629.9255,910.0561,625.8959,914.0857,629.866,910.019,620.896" style="stroke: #000000; stroke-width: 0.5;"/><!--MD5=[daf0a0436e4b8592ad13ffc1827e03d4]
link routes/authors to controllers/authors--><path d="M157.765,868.807 C167.711,868.807 178.138,868.807 188.408,868.807 " fill="none" id="routes/authors-&gt;controllers/authors" style="stroke: #000000; stroke-width: 0.5;"/><polygon fill="#000000" points="193.434,868.807,184.434,864.807,188.434,868.807,184.434,872.807,193.434,868.807" style="stroke: #000000; stroke-width: 0.5;"/><!--MD5=[47b22c33e05152882269a72b7716fa51]
link routes/authors to express--><path d="M104.4232,883.422 C117.092,910.384 148.107,967.5864 193.515,993.8066 C277.347,1042.2127 312.712,1021.8066 409.515,1021.8066 C409.515,1021.8066 409.515,1021.8066 565.515,1021.8066 C669.132,1021.8066 718.043,1065.2931 797.515,998.8066 C856.511,949.4513 895.636,702.575 906.464,626.296 " fill="none" id="routes/authors-&gt;express" style="stroke: #000000; stroke-width: 0.5;"/><polygon fill="#000000" points="907.195,621.104,901.9793,629.4584,906.4979,626.0552,909.9011,630.5738,907.195,621.104" style="stroke: #000000; stroke-width: 0.5;"/><!--MD5=[2bfdf279a6c1649613d4a7197b65c221]
link routes/books to controllers/books--><path d="M154.046,673.807 C166.216,673.807 179.249,673.807 191.926,673.807 " fill="none" id="routes/books-&gt;controllers/books" style="stroke: #000000; stroke-width: 0.5;"/><polygon fill="#000000" points="196.953,673.807,187.953,669.807,191.953,673.807,187.953,677.807,196.953,673.807" style="stroke: #000000; stroke-width: 0.5;"/><!--MD5=[9a8d931e4ccbc629c9a61f96a097e6cc]
link routes/books to express--><path d="M108.921,687.69 C122.099,705.063 144.16,736.148 157.515,765.807 C181.956,820.081 150.587,853.573 193.515,894.807 C264.655,963.1365 310.876,945.8066 409.515,945.8066 C409.515,945.8066 409.515,945.8066 565.515,945.8066 C669.728,945.8066 716.73,977.6397 797.515,911.807 C888.314,837.813 905.507,683.657 908.759,626.109 " fill="none" id="routes/books-&gt;express" style="stroke: #000000; stroke-width: 0.5;"/><polygon fill="#000000" points="909.032,620.847,904.5719,629.6281,908.7734,625.8403,912.5612,630.0418,909.032,620.847" style="stroke: #000000; stroke-width: 0.5;"/><!--MD5=[6bc2cde66bb6800c6c98a6df691c72fe]
link <b>seeder</b> to dotenv--><path d="M435.204,266.482 C501.059,239.55 688.622,175.11 797.515,262.807 C817.002,278.5 792.177,299.769 809.515,317.807 C825.972,334.928 852.151,341.294 873.596,343.45 " fill="none" id="&lt;b&gt;seeder&lt;/b&gt;-&gt;dotenv" style="stroke: #000000; stroke-width: 1.0;"/><polygon fill="#000000" points="878.655,343.891,870.0365,339.1242,873.6739,343.4566,869.3415,347.094,878.655,343.891" style="stroke: #000000; stroke-width: 1.0;"/><!--MD5=[a0a4c72492a5b9fc808459a391f33244]
link <b>seeder</b> to models--><path d="M385.623,287.041 C373.605,293.404 360.34,302.868 353.515,315.807 C319.717,379.884 342.838,570.153 353.515,641.807 C363.013,705.536 389.77,777.583 402.966,810.564 " fill="none" id="&lt;b&gt;seeder&lt;/b&gt;-&gt;models" style="stroke: #000000; stroke-width: 1.0;"/><polygon fill="#000000" points="404.962,815.515,405.3057,805.6721,403.092,810.8779,397.8863,808.6641,404.962,815.515" style="stroke: #000000; stroke-width: 1.0;"/><!--MD5=[bea60c5be98e13622d8c521da1eaf457]
link <b>seeder</b> to mongoose--><path d="M449.042,274.204 C535.844,269.027 746.93,261.531 797.515,306.807 C818.754,325.816 790.038,348.996 809.515,369.807 C823.073,384.292 843.581,391.114 862.504,394.19 " fill="none" id="&lt;b&gt;seeder&lt;/b&gt;-&gt;mongoose" style="stroke: #000000; stroke-width: 1.0;"/><polygon fill="#000000" points="867.792,394.962,859.4632,389.7055,862.8443,394.2407,858.3091,397.6218,867.792,394.962" style="stroke: #000000; stroke-width: 1.0;"/><!--MD5=[bf1489668d70558078833be27071b9b5]
link unauthenticated to custom-errors--><path d="M628.585,586.173 C643.487,586.26 659.38,586.352 674.289,586.439 " fill="none" id="unauthenticated-&gt;custom-errors" style="stroke: #000000; stroke-width: 0.5;"/><polygon fill="#000000" points="679.305,586.468,670.328,582.4166,674.3051,586.4394,670.2823,590.4165,679.305,586.468" style="stroke: #000000; stroke-width: 0.5;"/><!--MD5=[d4e3e054b3b5cc320dc23a309bab4df4]
link unauthenticated to http-status-codes--><path d="M607.321,574.533 C619.182,570.909 631.998,566.581 643.515,561.807 C720.654,529.83 731.69,504.074 809.515,473.807 C818.998,470.119 829.187,466.789 839.305,463.839 " fill="none" id="unauthenticated-&gt;http-status-codes" style="stroke: #000000; stroke-width: 0.5;"/><polygon fill="#000000" points="844.263,462.422,834.5102,461.0499,839.4556,463.7964,836.7092,468.7418,844.263,462.422" style="stroke: #000000; stroke-width: 0.5;"/><script type="text/plantuml"><![CDATA[MD5=[182e2fec3d0ff96b128e0559e407a648]
@startuml

scale max 1920 width
left to right direction

skinparam nodesep 18
skinparam ranksep 36
skinparam monochrome true
skinparam shadowing false
skinparam defaultFontName Tahoma
skinparam defaultFontSize 12
skinparam roundCorner 6
skinparam dpi 150
skinparam arrowColor black
skinparam arrowThickness 0.5
skinparam packageTitleAlignment left

skinparam usecase {
  borderThickness 0.5
}

skinparam rectangle {
  borderThickness 0.5
}

skinparam component {
  borderThickness 1
}


(<b>app</b>)
(Author)
(bad-request)
(Book)
(connect)
(controllers/auth)
(controllers/authors)
(controllers/books)
(custom-errors)
(error-handler)
(errors)
(errors/not-found)
(middleware/auth)
(middleware/not-found)
(models)
(routes/auth)
(routes/authors)
(routes/books)
(<b>seeder</b>)
(unauthenticated)

package "Dependencies" {
  [bcryptjs]
  [cors]
  [dotenv]
  [express]
  [express-async-errors]
  [express-rate-limit]
  [helmet]
  [http-status-codes]
  [jsonwebtoken]
  [mongoose]
  [xss-clean]
}

(<b>app</b>) -[thickness=1]> (connect)
(<b>app</b>) --[thickness=1]> [cors]
(<b>app</b>) --[thickness=1]> [dotenv]
(<b>app</b>) -[thickness=1]> (error-handler)
(<b>app</b>) --[thickness=1]> [express]
(<b>app</b>) --[thickness=1]> [express-async-errors]
(<b>app</b>) --[thickness=1]> [express-rate-limit]
(<b>app</b>) --[thickness=1]> [helmet]
(<b>app</b>) -[thickness=1]> (middleware/auth)
(<b>app</b>) -[thickness=1]> (middleware/not-found)
(<b>app</b>) -[thickness=1]> (routes/auth)
(<b>app</b>) -[thickness=1]> (routes/authors)
(<b>app</b>) -[thickness=1]> (routes/books)
(<b>app</b>) --[thickness=1]> [xss-clean]
(Author) ---> [bcryptjs]
(Author) ---> [jsonwebtoken]
(Author) ---> [mongoose]
(bad-request) --> (custom-errors)
(bad-request) ---> [http-status-codes]
(Book) ---> [mongoose]
(connect) ---> [mongoose]
(controllers/auth) --> (Author)
(controllers/auth) --> (errors)
(controllers/auth) ---> [http-status-codes]
(controllers/authors) ---> [http-status-codes]
(controllers/authors) --> (models)
(controllers/books) --> (Book)
(controllers/books) --> (errors)
(controllers/books) ---> [http-status-codes]
(error-handler) ---> [http-status-codes]
(errors) --> (bad-request)
(errors) --> (custom-errors)
(errors) --> (errors/not-found)
(errors) --> (unauthenticated)
(errors/not-found) --> (custom-errors)
(errors/not-found) ---> [http-status-codes]
(middleware/auth) --> (Author)
(middleware/auth) --> (errors)
(middleware/auth) ---> [jsonwebtoken]
(middleware/not-found) ---> [http-status-codes]
(models) --> (Author)
(models) --> (Book)
(routes/auth) --> (controllers/auth)
(routes/auth) ---> [express]
(routes/authors) --> (controllers/authors)
(routes/authors) ---> [express]
(routes/books) --> (controllers/books)
(routes/books) ---> [express]
(<b>seeder</b>) --[thickness=1]> [dotenv]
(<b>seeder</b>) -[thickness=1]> (models)
(<b>seeder</b>) --[thickness=1]> [mongoose]
(unauthenticated) --> (custom-errors)
(unauthenticated) ---> [http-status-codes]

@enduml


' View and edit on https://arkit.pro
]]></script></g></svg>