<?xml version="1.0" encoding="UTF-8" standalone="no"?>
<!DOCTYPE svg PUBLIC "-//W3C//DTD SVG 1.1//EN"
 "http://www.w3.org/Graphics/SVG/1.1/DTD/svg11.dtd">
<!-- Generated by graphviz version 2.40.1 (20161225.0304)
 -->
<!-- Title: %0 Pages: 1 -->
<svg width="359pt" height="656pt"
 viewBox="0.00 0.00 359.00 656.00" xmlns="http://www.w3.org/2000/svg" xmlns:xlink="http://www.w3.org/1999/xlink">
<g id="graph0" class="graph" transform="scale(1 1) rotate(0) translate(144 512)">
<title>%0</title>
<polygon fill="#ffffff" stroke="transparent" points="-144,144 -144,-512 215,-512 215,144 -144,144"/>
<!-- authors -->
<g id="node1" class="node">
<title>authors</title>
<polygon fill="#4477c9" stroke="transparent" points=".5,0 .5,-158 70.5,-158 70.5,0 .5,0"/>
<polygon fill="#add8e6" stroke="transparent" points=".5,-140 .5,-158 70.5,-158 70.5,-140 .5,-140"/>
<polygon fill="none" stroke="#000000" points=".5,-140 .5,-158 70.5,-158 70.5,-140 .5,-140"/>
<text text-anchor="start" x="20.0038" y="-146.9" font-family="Times,serif" font-weight="bold" font-style="italic" font-size="9.00" fill="#000000"> authors </text>
<polygon fill="none" stroke="#000000" points=".5,-120 .5,-140 70.5,-140 70.5,-120 .5,-120"/>
<text text-anchor="start" x="5.5" y="-126.9" font-family="Times,serif" font-size="9.00" fill="#000000">name: String</text>
<polygon fill="none" stroke="#000000" points=".5,-100 .5,-120 70.5,-120 70.5,-100 .5,-100"/>
<text text-anchor="start" x="5.5" y="-106.9" font-family="Times,serif" font-size="9.00" fill="#000000">email: String</text>
<polygon fill="none" stroke="#000000" points=".5,-80 .5,-100 70.5,-100 70.5,-80 .5,-80"/>
<text text-anchor="start" x="5.5" y="-86.9" font-family="Times,serif" font-size="9.00" fill="#000000">phone: String</text>
<polygon fill="none" stroke="#000000" points=".5,-60 .5,-80 70.5,-80 70.5,-60 .5,-60"/>
<text text-anchor="start" x="5.1295" y="-66.9" font-family="Times,serif" font-size="9.00" fill="#000000">password: String</text>
<polygon fill="none" stroke="#000000" points=".5,-40 .5,-60 70.5,-60 70.5,-40 .5,-40"/>
<text text-anchor="start" x="5.5" y="-46.9" font-family="Times,serif" font-size="9.00" fill="#000000">books: Array</text>
<polygon fill="none" stroke="#000000" points=".5,-20 .5,-40 70.5,-40 70.5,-20 .5,-20"/>
<text text-anchor="start" x="5.5" y="-26.9" font-family="Times,serif" font-size="9.00" fill="#000000">_id: ObjectID</text>
<polygon fill="none" stroke="#000000" points=".5,0 .5,-20 70.5,-20 70.5,0 .5,0"/>
<text text-anchor="start" x="5.5" y="-6.9" font-family="Times,serif" font-size="9.00" fill="#000000">__v: Number</text>
</g>
<!-- books -->
<g id="node2" class="node">
<title>books</title>
<polygon fill="#4477c9" stroke="transparent" points="0,-230 0,-368 71,-368 71,-230 0,-230"/>
<polygon fill="#add8e6" stroke="transparent" points=".5,-350 .5,-368 71.5,-368 71.5,-350 .5,-350"/>
<polygon fill="none" stroke="#000000" points=".5,-350 .5,-368 71.5,-368 71.5,-350 .5,-350"/>
<text text-anchor="start" x="22.9999" y="-356.9" font-family="Times,serif" font-weight="bold" font-style="italic" font-size="9.00" fill="#000000"> books </text>
<polygon fill="none" stroke="#000000" points=".5,-330 .5,-350 71.5,-350 71.5,-330 .5,-330"/>
<text text-anchor="start" x="5.5" y="-336.9" font-family="Times,serif" font-size="9.00" fill="#000000">title: String</text>
<polygon fill="none" stroke="#000000" points=".5,-310 .5,-330 71.5,-330 71.5,-310 .5,-310"/>
<text text-anchor="start" x="5.387" y="-316.9" font-family="Times,serif" font-size="9.00" fill="#000000">author: ObjectID</text>
<polygon fill="none" stroke="#000000" points=".5,-290 .5,-310 71.5,-310 71.5,-290 .5,-290"/>
<text text-anchor="start" x="5.5" y="-296.9" font-family="Times,serif" font-size="9.00" fill="#000000">likeBy: Array</text>
<polygon fill="none" stroke="#000000" points=".5,-270 .5,-290 71.5,-290 71.5,-270 .5,-270"/>
<text text-anchor="start" x="5.5" y="-276.9" font-family="Times,serif" font-size="9.00" fill="#000000">likes: Number</text>
<polygon fill="none" stroke="#000000" points=".5,-250 .5,-270 71.5,-270 71.5,-250 .5,-250"/>
<text text-anchor="start" x="5.5" y="-256.9" font-family="Times,serif" font-size="9.00" fill="#000000">_id: ObjectID</text>
<polygon fill="none" stroke="#000000" points=".5,-230 .5,-250 71.5,-250 71.5,-230 .5,-230"/>
<text text-anchor="start" x="5.5" y="-236.9" font-family="Times,serif" font-size="9.00" fill="#000000">__v: Number</text>
</g>
</g>
</svg>
